<svg width="149" height="153" viewBox="0 0 149 153" fill="none" xmlns="http://www.w3.org/2000/svg">
<path opacity="0.5" d="M146.658 69.2642C146.592 69.4559 146.519 69.6476 146.447 69.8452L145.675 69.5895L94.3504 52.5715L53.3297 38.9815L24.5127 29.4296C22.4638 28.7132 20.6757 27.4379 19.3667 25.7593C18.0577 24.0806 17.2843 22.0712 17.1411 19.9764C17.1411 19.7382 17.1411 19.5 17.1411 19.2559C17.1411 19.0119 17.1411 18.826 17.1411 18.611C17.2025 17.569 17.422 16.5414 17.7925 15.5607C20.0203 9.66856 24.5867 4.86991 30.4873 2.22005C36.388 -0.429798 43.1397 -0.713865 49.2578 1.4303L55.1455 3.37088L124.826 26.3327C131.462 28.5232 136.801 32.6077 141.042 37.3721C143.762 40.4457 146.471 46.8252 146.471 46.8252L146.899 48.0454C149.198 54.958 149.114 62.4017 146.658 69.2642Z" fill="#080808"/>
<path opacity="0.5" d="M132.137 133.092C132.137 133.497 132.113 133.903 132.065 134.306C131.966 135.153 131.764 135.986 131.462 136.787C130.359 139.705 128.671 142.385 126.493 144.674C124.315 146.964 121.69 148.818 118.768 150.13C115.846 151.442 112.684 152.187 109.464 152.322C106.243 152.457 103.026 151.98 99.9965 150.917L94.0605 148.965L24.44 126.038C17.8529 123.882 12.086 119.878 7.88086 114.54C2.87479 108.196 0.35204 100.356 0.75653 92.3972C0.927809 89.0239 1.62325 85.6945 2.81964 82.5199V82.4734H2.88599L53.9206 99.3868L96.1779 113.395L124.748 122.866C126.709 123.553 128.433 124.753 129.726 126.332C131.018 127.91 131.828 129.804 132.065 131.802C132.115 132.23 132.139 132.661 132.137 133.092Z" fill="#080808"/>
<path opacity="0.5" d="M146.615 69.2087L145.632 69.5282L53.8784 99.3809L7.83866 114.487C2.82478 108.145 0.295478 100.301 0.696238 92.339C0.867517 88.9657 1.56296 85.6363 2.75935 82.4617H2.84379L94.3019 52.5044L140.993 37.3108C140.993 37.3108 144.866 42.6678 146.422 46.7639C146.537 47.0661 146.851 47.9841 146.851 47.9841C149.153 54.8979 149.071 62.3438 146.615 69.2087Z" fill="#080808"/>
<path opacity="0.5" d="M55.1575 3.366V28.7391C55.1638 32.2259 54.5517 35.6882 53.3478 38.9766C51.1422 44.9672 47.0637 50.1524 41.6732 53.8189C36.2827 57.4855 29.8451 59.4533 23.2459 59.4517H21.8041C20.57 59.4501 19.387 58.9769 18.515 58.1359C17.6429 57.2949 17.1531 56.1549 17.1531 54.9662V18.6061C17.2145 17.5642 17.434 16.5365 17.8046 15.5558C20.0324 9.66368 24.5987 4.86502 30.4993 2.21517C36.4 -0.434681 43.1518 -0.718747 49.2699 1.42542L55.1575 3.366Z" fill="#080808"/>
<path opacity="0.5" d="M132.065 98.214V134.307C131.966 135.154 131.764 135.987 131.462 136.788C130.359 139.706 128.671 142.386 126.493 144.675C124.315 146.965 121.69 148.818 118.768 150.131C115.846 151.443 112.685 152.188 109.464 152.323C106.243 152.458 103.026 151.981 99.9965 150.918L94.0606 148.966V124.47C94.0528 120.696 94.7707 116.953 96.178 113.431C98.4951 107.632 102.583 102.646 107.902 99.1293C113.22 95.613 119.521 93.732 125.972 93.7344H127.438C128.668 93.7405 129.844 94.2152 130.711 95.0546C131.578 95.894 132.065 97.03 132.065 98.214Z" fill="#080808"/>
</svg>
