<?xml version="1.0" encoding="utf-8"?>
<!-- Generator: Adobe Illustrator 25.0.1, SVG Export Plug-In . SVG Version: 6.00 Build 0)  -->
<svg version="1.0" id="katman_1" xmlns="http://www.w3.org/2000/svg" xmlns:xlink="http://www.w3.org/1999/xlink" x="0px" y="0px"
	 viewBox="0 0 1533.4 893.3" style="enable-background:new 0 0 1533.4 893.3;" xml:space="preserve">
<style type="text/css">
	.st0{fill:#1D1D1B;}
	.st1{fill:#32B8BB;}
</style>
<g>
	<path class="st0" d="M252.7,339.1h-59v248.2h59V339.1z"/>
	<path class="st0" d="M470.1,332.6h91.3V274h-91.3c-86.7,0-156.9,70.1-156.9,156.9c0,86.7,70.1,156.9,156.9,156.9h91.3v-59h-91.3
		c-54,0-97.9-43.9-97.9-97.9C371.8,376.5,415.7,332.6,470.1,332.6z"/>
	<path class="st0" d="M1136,274c-77.5,0-140.3,62.8-140.3,140.3v173h59v-173c0-45.1,36.6-81.7,81.7-81.7s81.7,36.6,81.7,81.7v173h59
		v-173C1276.7,336.8,1213.5,274,1136,274z"/>
	<path class="st0" d="M261.9,266.3c5.4,27.7-18.5,51.3-46.2,46.2c-15.4-3.1-27.7-15.4-30.8-30.8c-5.4-27.7,18.5-51.6,46.2-46.2
		C246.1,238.2,258.8,250.9,261.9,266.3z"/>
	<path class="st1" d="M913.2,337.3l-42,42c9.2,15,14.3,32.4,14.3,50.9c0,54-43.6,97.5-97.5,97.5c-18.9,0-36.2-5.4-50.9-14.3l-42,42
		c25.8,19.3,58.2,30.8,93.3,30.8c86.3,0,156.1-69.8,156.1-156.1C944.1,395.5,932.5,363.5,913.2,337.3z"/>
	<path class="st1" d="M690.1,430.6c0-54,43.6-97.5,97.5-97.5c18.9,0,36.2,5.4,50.9,14.3l42-42c-25.8-19.3-58.2-30.8-93.3-30.8
		c-86.3,0-156.1,69.8-156.1,156.1c0,35.1,11.6,67.1,30.8,93.3l42.8-42.4C695.5,466.8,690.1,449.1,690.1,430.6z"/>
	<path class="st1" d="M982.2,266.7c5.4,27.4-18.5,51.3-45.9,45.9c-15.4-3.1-27.7-15.4-30.8-30.8c-5-27.4,18.5-50.9,46.2-45.9
		C967.2,239,979.6,251.3,982.2,266.7z"/>
	<path class="st1" d="M669.3,578.9c5.4,27.4-18.5,51.3-45.9,45.9c-15.4-3.1-27.8-15.4-30.8-30.8c-5.4-27.4,18.5-51.3,45.9-45.9
		C653.9,551.2,666.6,563.9,669.3,578.9z"/>
</g>
</svg>
